<svg t="1657535682068" class="icon" viewBox="0 0 1024 1024" version="1.1" xmlns="http://www.w3.org/2000/svg" p-id="6549" width="200" height="200"><path d="M224 384h576A96 96 0 0 1 896 480v384a96 96 0 0 1-96 96h-576A96 96 0 0 1 128 864v-384A96 96 0 0 1 224 384z m0 64a32 32 0 0 0-32 32v384a32 32 0 0 0 32 32h576a32 32 0 0 0 32-32v-384a32 32 0 0 0-32-32h-576z m576-160a32 32 0 1 1-64 0 224 224 0 0 0-448 0 32 32 0 0 1-64 0 288 288 0 0 1 576 0z m-320 320a32 32 0 0 1 64 0v128a32 32 0 1 1-64 0v-128z" p-id="6550"></path></svg>